<svg width="509" height="97" xmlns="http://www.w3.org/2000/svg" xmlns:xlink="http://www.w3.org/1999/xlink" xml:space="preserve" overflow="hidden"><g><path d="M207.214 2.19727 184.606 2.19727 158.514 48.4494 132.419 2.19727 109.825 2.19727 109.825 95.1899 132.453 95.1899 132.453 45.4516 147.199 73.5543 169.813 73.5509 184.6 45.4516 184.6 95.1899 207.214 95.1899 207.214 2.19727Z" fill="#44CC00"/><path d="M280.528 2.19727 248.515 2.19727 217.481 95.1899 241.339 95.1899 246.247 79.9127 282.792 79.9127 287.7 95.1899 311.561 95.1899 280.528 2.19727ZM253.047 59.9489 264.521 25.4336 275.996 59.9489 253.047 59.9489Z" fill="#44CC00"/><path d="M378.181 2.24707 301.92 2.24707 301.92 24.1405 328.539 24.1371 328.536 95.138 351.413 95.138 351.407 24.1371 378.181 24.1405 378.181 2.24707Z" fill="#44CC00"/><path d="M414.327 2.25098 391.611 2.25098 391.611 95.1351 414.327 95.1351 414.327 2.25098Z" fill="#44CC00"/><path d="M474.719 0.823242C448.411 0.823242 427.01 22.2961 427.01 48.693 427.01 75.0899 448.414 96.5628 474.719 96.5628 487.853 96.5628 499.76 91.2115 508.395 82.5674L492.256 66.3746C487.755 70.8713 481.556 73.652 474.719 73.652 461.004 73.652 449.844 62.4578 449.844 48.693 449.844 34.9316 461.004 23.734 474.719 23.734 481.512 23.734 487.677 26.4842 492.169 30.9301L508.307 14.7338C499.682 6.14399 487.809 0.823242 474.719 0.823242Z" fill="#44CC00"/><path d="M74.3499 49.2049C73.897 63.1833 62.1962 74.1877 48.2647 73.7333 34.3332 73.2822 23.3658 61.5386 23.8187 47.5602 24.2716 33.5818 35.9724 22.5774 49.9039 23.0319 63.8354 23.4863 74.8028 35.2265 74.3499 49.2049ZM99.438 86.5248 88.9641 75.3135C93.8614 68.0395 96.8491 59.3513 97.1533 49.9476 98.0118 23.3506 77.1483 1.01299 50.6407 0.151634 24.133-0.709724 1.87036 20.224 1.0119 46.8209 0.153433 73.4145 21.0169 95.7555 47.5245 96.6169 56.7344 96.9153 65.4239 94.5788 72.8898 90.2957L77.9189 95.6809 89.7009 95.6809 99.438 86.5248Z" fill="#44CC00"/></g></svg>